<?xml version="1.0" encoding="UTF-8" standalone="no"?>
<!-- Created with Inkscape (http://www.inkscape.org/) -->

<svg
   xmlns:dc="http://purl.org/dc/elements/1.1/"
   xmlns:cc="http://creativecommons.org/ns#"
   xmlns:rdf="http://www.w3.org/1999/02/22-rdf-syntax-ns#"
   xmlns:svg="http://www.w3.org/2000/svg"
   xmlns="http://www.w3.org/2000/svg"
   xmlns:sodipodi="http://sodipodi.sourceforge.net/DTD/sodipodi-0.dtd"
   xmlns:inkscape="http://www.inkscape.org/namespaces/inkscape"
   width="16"
   height="16"
   viewBox="0 0 4.2333332 4.2333335"
   version="1.1"
   id="svg8"
   sodipodi:docname="favicon.svg"
   inkscape:version="0.92.3 (2405546, 2018-03-11)">
  <defs
     id="defs2">
    <clipPath
       id="clipPath45"
       clipPathUnits="userSpaceOnUse">
      <path
         inkscape:connector-curvature="0"
         id="path43"
         d="M 0,841.89 H 595.276 V 0 H 0 Z" />
    </clipPath>
    <clipPath
       id="clipPath159"
       clipPathUnits="userSpaceOnUse">
      <path
         inkscape:connector-curvature="0"
         id="path157"
         d="M 0,841.89 H 595.276 V 0 H 0 Z" />
    </clipPath>
    <clipPath
       id="clipPath179"
       clipPathUnits="userSpaceOnUse">
      <path
         inkscape:connector-curvature="0"
         id="path177"
         d="M 0,841.89 H 595.276 V 0 H 0 Z" />
    </clipPath>
    <clipPath
       id="clipPath199"
       clipPathUnits="userSpaceOnUse">
      <path
         inkscape:connector-curvature="0"
         id="path197"
         d="M 0,841.89 H 595.276 V 0 H 0 Z" />
    </clipPath>
    <clipPath
       id="clipPath223"
       clipPathUnits="userSpaceOnUse">
      <path
         inkscape:connector-curvature="0"
         id="path221"
         d="M 0,841.89 H 595.276 V 0 H 0 Z" />
    </clipPath>
    <clipPath
       id="clipPath263"
       clipPathUnits="userSpaceOnUse">
      <path
         inkscape:connector-curvature="0"
         id="path261"
         d="M 0,841.89 H 595.276 V 0 H 0 Z" />
    </clipPath>
    <clipPath
       id="clipPath291"
       clipPathUnits="userSpaceOnUse">
      <path
         inkscape:connector-curvature="0"
         id="path289"
         d="M 0,841.89 H 595.276 V 0 H 0 Z" />
    </clipPath>
    <clipPath
       id="clipPath307"
       clipPathUnits="userSpaceOnUse">
      <path
         inkscape:connector-curvature="0"
         id="path305"
         d="M 0,841.89 H 595.276 V 0 H 0 Z" />
    </clipPath>
    <clipPath
       id="clipPath339"
       clipPathUnits="userSpaceOnUse">
      <path
         inkscape:connector-curvature="0"
         id="path337"
         d="M 0,841.89 H 595.276 V 0 H 0 Z" />
    </clipPath>
    <clipPath
       id="clipPath371"
       clipPathUnits="userSpaceOnUse">
      <path
         inkscape:connector-curvature="0"
         id="path369"
         d="M 0,841.89 H 595.276 V 0 H 0 Z" />
    </clipPath>
    <clipPath
       id="clipPath429"
       clipPathUnits="userSpaceOnUse">
      <path
         inkscape:connector-curvature="0"
         id="path427"
         d="M 0,841.89 H 595.276 V 0 H 0 Z" />
    </clipPath>
    <clipPath
       id="clipPath445"
       clipPathUnits="userSpaceOnUse">
      <path
         inkscape:connector-curvature="0"
         id="path443"
         d="M 0,841.89 H 595.276 V 0 H 0 Z" />
    </clipPath>
    <clipPath
       id="clipPath461"
       clipPathUnits="userSpaceOnUse">
      <path
         inkscape:connector-curvature="0"
         id="path459"
         d="M 0,841.89 H 595.276 V 0 H 0 Z" />
    </clipPath>
    <clipPath
       id="clipPath477"
       clipPathUnits="userSpaceOnUse">
      <path
         inkscape:connector-curvature="0"
         id="path475"
         d="M 0,841.89 H 595.276 V 0 H 0 Z" />
    </clipPath>
    <clipPath
       id="clipPath493"
       clipPathUnits="userSpaceOnUse">
      <path
         inkscape:connector-curvature="0"
         id="path491"
         d="M 0,841.89 H 595.276 V 0 H 0 Z" />
    </clipPath>
    <clipPath
       id="clipPath509"
       clipPathUnits="userSpaceOnUse">
      <path
         inkscape:connector-curvature="0"
         id="path507"
         d="M 0,841.89 H 595.276 V 0 H 0 Z" />
    </clipPath>
    <clipPath
       id="clipPath525"
       clipPathUnits="userSpaceOnUse">
      <path
         inkscape:connector-curvature="0"
         id="path523"
         d="M 0,841.89 H 595.276 V 0 H 0 Z" />
    </clipPath>
    <clipPath
       id="clipPath541"
       clipPathUnits="userSpaceOnUse">
      <path
         inkscape:connector-curvature="0"
         id="path539"
         d="M 0,841.89 H 595.276 V 0 H 0 Z" />
    </clipPath>
    <clipPath
       id="clipPath557"
       clipPathUnits="userSpaceOnUse">
      <path
         inkscape:connector-curvature="0"
         id="path555"
         d="M 0,841.89 H 595.276 V 0 H 0 Z" />
    </clipPath>
    <clipPath
       id="clipPath573"
       clipPathUnits="userSpaceOnUse">
      <path
         inkscape:connector-curvature="0"
         id="path571"
         d="M 0,841.89 H 595.276 V 0 H 0 Z" />
    </clipPath>
    <clipPath
       id="clipPath589"
       clipPathUnits="userSpaceOnUse">
      <path
         inkscape:connector-curvature="0"
         id="path587"
         d="M 0,841.89 H 595.276 V 0 H 0 Z" />
    </clipPath>
    <clipPath
       id="clipPath605"
       clipPathUnits="userSpaceOnUse">
      <path
         inkscape:connector-curvature="0"
         id="path603"
         d="M 0,841.89 H 595.276 V 0 H 0 Z" />
    </clipPath>
    <clipPath
       id="clipPath633"
       clipPathUnits="userSpaceOnUse">
      <path
         inkscape:connector-curvature="0"
         id="path631"
         d="M 0,841.89 H 595.276 V 0 H 0 Z" />
    </clipPath>
    <clipPath
       id="clipPath657"
       clipPathUnits="userSpaceOnUse">
      <path
         inkscape:connector-curvature="0"
         id="path655"
         d="M 0,841.89 H 595.276 V 0 H 0 Z" />
    </clipPath>
    <clipPath
       id="clipPath677"
       clipPathUnits="userSpaceOnUse">
      <path
         inkscape:connector-curvature="0"
         id="path675"
         d="M 0,841.89 H 595.276 V 0 H 0 Z" />
    </clipPath>
    <clipPath
       id="clipPath697"
       clipPathUnits="userSpaceOnUse">
      <path
         inkscape:connector-curvature="0"
         id="path695"
         d="M 0,841.89 H 595.276 V 0 H 0 Z" />
    </clipPath>
    <clipPath
       id="clipPath717"
       clipPathUnits="userSpaceOnUse">
      <path
         inkscape:connector-curvature="0"
         id="path715"
         d="M 0,841.89 H 595.276 V 0 H 0 Z" />
    </clipPath>
    <clipPath
       id="clipPath737"
       clipPathUnits="userSpaceOnUse">
      <path
         inkscape:connector-curvature="0"
         id="path735"
         d="M 0,841.89 H 595.276 V 0 H 0 Z" />
    </clipPath>
  </defs>
  <sodipodi:namedview
     id="base"
     pagecolor="#ffffff"
     bordercolor="#666666"
     borderopacity="1.0"
     inkscape:pageopacity="0.0"
     inkscape:pageshadow="2"
     inkscape:zoom="22.4"
     inkscape:cx="13.321414"
     inkscape:cy="9.4286949"
     inkscape:document-units="mm"
     inkscape:current-layer="layer1"
     showgrid="false"
     inkscape:window-width="1920"
     inkscape:window-height="1020"
     inkscape:window-x="0"
     inkscape:window-y="0"
     inkscape:window-maximized="1"
     units="px"
     inkscape:pagecheckerboard="false" />
  <metadata
     id="metadata5">
    <rdf:RDF>
      <cc:Work
         rdf:about="">
        <dc:format>image/svg+xml</dc:format>
        <dc:type
           rdf:resource="http://purl.org/dc/dcmitype/StillImage" />
        <dc:title></dc:title>
      </cc:Work>
    </rdf:RDF>
  </metadata>
  <g
     inkscape:label="Camada 1"
     inkscape:groupmode="layer"
     id="layer1"
     transform="translate(0,-292.76665)">
    <g
       id="g145"
       transform="translate(-2.2300267,36.031166)"
       style="fill:#335db4;fill-opacity:1">
      <path
         d="m 2.9145902,258.31917 c -0.2557073,0.0943 -0.5634182,0.10079 -0.6582409,0.013 -0.087825,-0.0812 0.052965,-0.20537 0.2909539,-0.27734 0.2205262,-0.0666 0.4671179,-0.0702 0.5710579,-0.009 0.1110647,0.0655 0.030686,0.18695 -0.2037709,0.27336"
         style="fill:#335db4;fill-opacity:1;fill-rule:evenodd;stroke:none;stroke-width:0.06419984"
         id="path57"
         inkscape:connector-curvature="0" />
      <path
         d="m 3.6444199,258.01551 c -0.1542713,0.0558 -0.3647192,0.0593 -0.456268,0.007 -0.086733,-0.0494 -0.025873,-0.12686 0.1238418,-0.17289 0.141689,-0.0435 0.32164,-0.0457 0.4126119,-0.005 0.095529,0.0424 0.065034,0.11864 -0.080186,0.17115"
         style="fill:#335db4;fill-opacity:1;fill-rule:evenodd;stroke:none;stroke-width:0.06419984"
         id="path61"
         inkscape:connector-curvature="0" />
      <path
         d="m 4.1886498,257.78912 c -0.092961,0.033 -0.2341368,0.0348 -0.3091214,0.004 -0.072226,-0.0299 -0.051296,-0.0775 0.041152,-0.10637 0.088788,-0.0277 0.2155817,-0.029 0.2883843,-0.003 0.07537,0.0268 0.068759,0.074 -0.020415,0.10568"
         style="fill:#335db4;fill-opacity:1;fill-rule:evenodd;stroke:none;stroke-width:0.06419984"
         id="path65"
         inkscape:connector-curvature="0" />
      <path
         d="m 4.6100515,257.61376 c -0.053543,0.0187 -0.1429738,0.0196 -0.1971576,0.002 -0.052965,-0.0173 -0.050204,-0.0451 0.00366,-0.0622 0.052515,-0.0167 0.135911,-0.0174 0.1884898,-0.002 0.053929,0.0161 0.057203,0.0438 0.005,0.062"
         style="fill:#335db4;fill-opacity:1;fill-rule:evenodd;stroke:none;stroke-width:0.06419984"
         id="path69"
         inkscape:connector-curvature="0" />
      <path
         d="m 3.4123578,258.67729 c -0.2736199,0.12975 -0.6324975,0.13944 -0.7623739,0.0193 -0.1187681,-0.10991 0.017725,-0.2758 0.2738129,-0.37075 0.2348428,-0.087 0.513278,-0.0922 0.6478405,-0.0129 0.1452194,0.0856 0.088018,0.24717 -0.1592795,0.3644"
         style="fill:#335db4;fill-opacity:1;fill-rule:evenodd;stroke:none;stroke-width:0.06419984"
         id="path73"
         inkscape:connector-curvature="0" />
      <path
         d="m 4.1600619,258.27256 c -0.1577381,0.0729 -0.396499,0.0779 -0.5155892,0.01 -0.1119637,-0.0638 -0.064584,-0.16326 0.09065,-0.22188 0.1458636,-0.0551 0.3460385,-0.0582 0.4605063,-0.008 0.1208246,0.0535 0.1115798,0.15119 -0.035567,0.21937"
         style="fill:#335db4;fill-opacity:1;fill-rule:evenodd;stroke:none;stroke-width:0.06419984"
         id="path77"
         inkscape:connector-curvature="0" />
      <path
         d="m 4.6950962,257.98288 c -0.092062,0.0416 -0.2491595,0.0441 -0.3431487,0.005 -0.0902,-0.0372 -0.08224,-0.0967 0.010719,-0.1325 0.088915,-0.0344 0.2284225,-0.0361 0.3177893,-0.004 0.092897,0.0331 0.102526,0.0917 0.014632,0.13148"
         style="fill:#335db4;fill-opacity:1;fill-rule:evenodd;stroke:none;stroke-width:0.06419984"
         id="path81"
         inkscape:connector-curvature="0" />
      <path
         d="m 5.0969746,257.76533 c -0.051873,0.0229 -0.1499073,0.0241 -0.2159674,0.003 -0.064393,-0.0209 -0.07139,-0.0548 -0.018555,-0.0757 0.051425,-0.0202 0.1422677,-0.0211 0.2056963,-0.002 0.065036,0.0194 0.079223,0.053 0.028826,0.0752"
         style="fill:#335db4;fill-opacity:1;fill-rule:evenodd;stroke:none;stroke-width:0.06419984"
         id="path85"
         inkscape:connector-curvature="0" />
      <path
         d="m 4.106455,259.17675 c -0.2862679,0.18913 -0.7166632,0.20447 -0.905475,0.0297 -0.1695507,-0.15684 -0.050075,-0.38944 0.2238655,-0.52009 0.2474907,-0.11812 0.5671416,-0.1257 0.7483138,-0.019 0.1978637,0.11659 0.1869483,0.3418 -0.066704,0.50943"
         style="fill:#335db4;fill-opacity:1;fill-rule:evenodd;stroke:none;stroke-width:0.06419984"
         id="path89"
         inkscape:connector-curvature="0" />
      <path
         d="m 4.8399571,258.61149 c -0.1554269,0.0993 -0.431167,0.10657 -0.5925011,0.0146 -0.1501621,-0.0855 -0.1276289,-0.2177 0.030238,-0.29487 0.147083,-0.072 0.3726811,-0.0764 0.5209178,-0.0107 0.1576744,0.07 0.1847681,0.19927 0.041345,0.29095"
         style="fill:#335db4;fill-opacity:1;fill-rule:evenodd;stroke:none;stroke-width:0.06419984"
         id="path93"
         inkscape:connector-curvature="0" />
      <path
         d="m 5.3369403,258.22845 c -0.087247,0.054 -0.2641822,0.0575 -0.3855836,0.007 -0.1157527,-0.0478 -0.1286571,-0.12371 -0.037814,-0.16936 0.086606,-0.0435 0.2415199,-0.046 0.3539331,-0.006 0.1174214,0.0418 0.1522822,0.11665 0.069465,0.16788"
         style="fill:#335db4;fill-opacity:1;fill-rule:evenodd;stroke:none;stroke-width:0.06419984"
         id="path97"
         inkscape:connector-curvature="0" />
      <path
         d="m 5.695998,257.95178 c -0.047893,0.0287 -0.1564551,0.0304 -0.2387591,0.004 -0.079993,-0.026 -0.101436,-0.0681 -0.05136,-0.0939 0.048535,-0.0251 0.148366,-0.0264 0.2262405,-0.003 0.08012,0.0239 0.1102312,0.0656 0.063878,0.0934"
         style="fill:#335db4;fill-opacity:1;fill-rule:evenodd;stroke:none;stroke-width:0.06419984"
         id="path101"
         inkscape:connector-curvature="0" />
      <path
         d="m 5.1418628,259.92166 c -0.2779202,0.30027 -0.8152729,0.32646 -1.1145726,0.0495 -0.2614234,-0.2419 -0.1892614,-0.59064 0.097134,-0.7815 0.2536527,-0.1691 0.6287723,-0.18053 0.8855078,-0.0292 0.2854962,0.16807 0.370883,0.503 0.131931,0.76121"
         style="fill:#335db4;fill-opacity:1;fill-rule:evenodd;stroke:none;stroke-width:0.06419984"
         id="path105"
         inkscape:connector-curvature="0" />
      <path
         d="m 5.7777178,259.07891 c -0.1392485,0.14272 -0.465449,0.15382 -0.696119,0.0224 -0.2118601,-0.1207 -0.2365116,-0.30457 -0.082817,-0.41069 0.1415598,-0.0976 0.3999641,-0.10394 0.5993692,-0.0155 0.2144279,0.0951 0.306104,0.27419 0.179567,0.40381"
         style="fill:#335db4;fill-opacity:1;fill-rule:evenodd;stroke:none;stroke-width:0.06419984"
         id="path109"
         inkscape:connector-curvature="0" />
      <path
         d="m 6.1769321,258.54989 c -0.074664,0.0727 -0.2772796,0.0778 -0.439833,0.0107 -0.1540148,-0.0637 -0.2014598,-0.16403 -0.1176781,-0.22399 0.07935,-0.0568 0.253589,-0.0603 0.399258,-0.008 0.1529246,0.0545 0.2285516,0.15325 0.1582531,0.22168"
         style="fill:#335db4;fill-opacity:1;fill-rule:evenodd;stroke:none;stroke-width:0.06419984"
         id="path113"
         inkscape:connector-curvature="0" />
      <path
         d="m 6.4509433,258.18676 c -0.039867,0.037 -0.1614633,0.0393 -0.266943,0.005 -0.1020783,-0.0333 -0.1453486,-0.0869 -0.101243,-0.11973 0.042693,-0.0316 0.1534378,-0.0334 0.251407,-0.004 0.1010501,0.0302 0.155234,0.0833 0.116779,0.1189"
         style="fill:#335db4;fill-opacity:1;fill-rule:evenodd;stroke:none;stroke-width:0.06419984"
         id="path117"
         inkscape:connector-curvature="0" />
    </g>
  </g>
</svg>
