<?xml version="1.0" encoding="UTF-8" standalone="no"?>
<!-- Created with Inkscape (http://www.inkscape.org/) -->

<svg
   xmlns:dc="http://purl.org/dc/elements/1.1/"
   xmlns:cc="http://creativecommons.org/ns#"
   xmlns:rdf="http://www.w3.org/1999/02/22-rdf-syntax-ns#"
   xmlns:svg="http://www.w3.org/2000/svg"
   xmlns="http://www.w3.org/2000/svg"
   xmlns:sodipodi="http://sodipodi.sourceforge.net/DTD/sodipodi-0.dtd"
   xmlns:inkscape="http://www.inkscape.org/namespaces/inkscape"
   width="210mm"
   height="297mm"
   viewBox="0 0 210 297"
   version="1.1"
   id="svg8"
   sodipodi:docname="logo.svg"
   inkscape:version="0.92.3 (2405546, 2018-03-11)">
  <defs
     id="defs2">
    <clipPath
       id="clipPath45"
       clipPathUnits="userSpaceOnUse">
      <path
         inkscape:connector-curvature="0"
         id="path43"
         d="M 0,841.89 H 595.276 V 0 H 0 Z" />
    </clipPath>
    <clipPath
       id="clipPath159"
       clipPathUnits="userSpaceOnUse">
      <path
         inkscape:connector-curvature="0"
         id="path157"
         d="M 0,841.89 H 595.276 V 0 H 0 Z" />
    </clipPath>
    <clipPath
       id="clipPath179"
       clipPathUnits="userSpaceOnUse">
      <path
         inkscape:connector-curvature="0"
         id="path177"
         d="M 0,841.89 H 595.276 V 0 H 0 Z" />
    </clipPath>
    <clipPath
       id="clipPath199"
       clipPathUnits="userSpaceOnUse">
      <path
         inkscape:connector-curvature="0"
         id="path197"
         d="M 0,841.89 H 595.276 V 0 H 0 Z" />
    </clipPath>
    <clipPath
       id="clipPath223"
       clipPathUnits="userSpaceOnUse">
      <path
         inkscape:connector-curvature="0"
         id="path221"
         d="M 0,841.89 H 595.276 V 0 H 0 Z" />
    </clipPath>
    <clipPath
       id="clipPath263"
       clipPathUnits="userSpaceOnUse">
      <path
         inkscape:connector-curvature="0"
         id="path261"
         d="M 0,841.89 H 595.276 V 0 H 0 Z" />
    </clipPath>
    <clipPath
       id="clipPath291"
       clipPathUnits="userSpaceOnUse">
      <path
         inkscape:connector-curvature="0"
         id="path289"
         d="M 0,841.89 H 595.276 V 0 H 0 Z" />
    </clipPath>
    <clipPath
       id="clipPath307"
       clipPathUnits="userSpaceOnUse">
      <path
         inkscape:connector-curvature="0"
         id="path305"
         d="M 0,841.89 H 595.276 V 0 H 0 Z" />
    </clipPath>
    <clipPath
       id="clipPath339"
       clipPathUnits="userSpaceOnUse">
      <path
         inkscape:connector-curvature="0"
         id="path337"
         d="M 0,841.89 H 595.276 V 0 H 0 Z" />
    </clipPath>
    <clipPath
       id="clipPath371"
       clipPathUnits="userSpaceOnUse">
      <path
         inkscape:connector-curvature="0"
         id="path369"
         d="M 0,841.89 H 595.276 V 0 H 0 Z" />
    </clipPath>
    <clipPath
       id="clipPath429"
       clipPathUnits="userSpaceOnUse">
      <path
         inkscape:connector-curvature="0"
         id="path427"
         d="M 0,841.89 H 595.276 V 0 H 0 Z" />
    </clipPath>
    <clipPath
       id="clipPath445"
       clipPathUnits="userSpaceOnUse">
      <path
         inkscape:connector-curvature="0"
         id="path443"
         d="M 0,841.89 H 595.276 V 0 H 0 Z" />
    </clipPath>
    <clipPath
       id="clipPath461"
       clipPathUnits="userSpaceOnUse">
      <path
         inkscape:connector-curvature="0"
         id="path459"
         d="M 0,841.89 H 595.276 V 0 H 0 Z" />
    </clipPath>
    <clipPath
       id="clipPath477"
       clipPathUnits="userSpaceOnUse">
      <path
         inkscape:connector-curvature="0"
         id="path475"
         d="M 0,841.89 H 595.276 V 0 H 0 Z" />
    </clipPath>
    <clipPath
       id="clipPath493"
       clipPathUnits="userSpaceOnUse">
      <path
         inkscape:connector-curvature="0"
         id="path491"
         d="M 0,841.89 H 595.276 V 0 H 0 Z" />
    </clipPath>
    <clipPath
       id="clipPath509"
       clipPathUnits="userSpaceOnUse">
      <path
         inkscape:connector-curvature="0"
         id="path507"
         d="M 0,841.89 H 595.276 V 0 H 0 Z" />
    </clipPath>
    <clipPath
       id="clipPath525"
       clipPathUnits="userSpaceOnUse">
      <path
         inkscape:connector-curvature="0"
         id="path523"
         d="M 0,841.89 H 595.276 V 0 H 0 Z" />
    </clipPath>
    <clipPath
       id="clipPath541"
       clipPathUnits="userSpaceOnUse">
      <path
         inkscape:connector-curvature="0"
         id="path539"
         d="M 0,841.89 H 595.276 V 0 H 0 Z" />
    </clipPath>
    <clipPath
       id="clipPath557"
       clipPathUnits="userSpaceOnUse">
      <path
         inkscape:connector-curvature="0"
         id="path555"
         d="M 0,841.89 H 595.276 V 0 H 0 Z" />
    </clipPath>
    <clipPath
       id="clipPath573"
       clipPathUnits="userSpaceOnUse">
      <path
         inkscape:connector-curvature="0"
         id="path571"
         d="M 0,841.89 H 595.276 V 0 H 0 Z" />
    </clipPath>
    <clipPath
       id="clipPath589"
       clipPathUnits="userSpaceOnUse">
      <path
         inkscape:connector-curvature="0"
         id="path587"
         d="M 0,841.89 H 595.276 V 0 H 0 Z" />
    </clipPath>
    <clipPath
       id="clipPath605"
       clipPathUnits="userSpaceOnUse">
      <path
         inkscape:connector-curvature="0"
         id="path603"
         d="M 0,841.89 H 595.276 V 0 H 0 Z" />
    </clipPath>
    <clipPath
       id="clipPath633"
       clipPathUnits="userSpaceOnUse">
      <path
         inkscape:connector-curvature="0"
         id="path631"
         d="M 0,841.89 H 595.276 V 0 H 0 Z" />
    </clipPath>
    <clipPath
       id="clipPath657"
       clipPathUnits="userSpaceOnUse">
      <path
         inkscape:connector-curvature="0"
         id="path655"
         d="M 0,841.89 H 595.276 V 0 H 0 Z" />
    </clipPath>
    <clipPath
       id="clipPath677"
       clipPathUnits="userSpaceOnUse">
      <path
         inkscape:connector-curvature="0"
         id="path675"
         d="M 0,841.89 H 595.276 V 0 H 0 Z" />
    </clipPath>
    <clipPath
       id="clipPath697"
       clipPathUnits="userSpaceOnUse">
      <path
         inkscape:connector-curvature="0"
         id="path695"
         d="M 0,841.89 H 595.276 V 0 H 0 Z" />
    </clipPath>
    <clipPath
       id="clipPath717"
       clipPathUnits="userSpaceOnUse">
      <path
         inkscape:connector-curvature="0"
         id="path715"
         d="M 0,841.89 H 595.276 V 0 H 0 Z" />
    </clipPath>
    <clipPath
       id="clipPath737"
       clipPathUnits="userSpaceOnUse">
      <path
         inkscape:connector-curvature="0"
         id="path735"
         d="M 0,841.89 H 595.276 V 0 H 0 Z" />
    </clipPath>
  </defs>
  <sodipodi:namedview
     id="base"
     pagecolor="#ffffff"
     bordercolor="#666666"
     borderopacity="1.0"
     inkscape:pageopacity="0.0"
     inkscape:pageshadow="2"
     inkscape:zoom="0.49497475"
     inkscape:cx="-166.22147"
     inkscape:cy="409.17612"
     inkscape:document-units="mm"
     inkscape:current-layer="layer1"
     showgrid="false"
     inkscape:window-width="1920"
     inkscape:window-height="1001"
     inkscape:window-x="-9"
     inkscape:window-y="-9"
     inkscape:window-maximized="1" />
  <metadata
     id="metadata5">
    <rdf:RDF>
      <cc:Work
         rdf:about="">
        <dc:format>image/svg+xml</dc:format>
        <dc:type
           rdf:resource="http://purl.org/dc/dcmitype/StillImage" />
      </cc:Work>
    </rdf:RDF>
  </metadata>
  <g
     inkscape:label="Camada 1"
     inkscape:groupmode="layer"
     id="layer1">
    <g
       id="g1679"
       transform="matrix(6.4270316,0,0,6.4270316,-870.14277,-454.83799)"
       inkscape:export-xdpi="96"
       inkscape:export-ydpi="96">
      <path
         d="m 143.85582,85.282813 c -1.40511,0.518231 -3.09598,0.553861 -3.61703,0.07161 -0.4826,-0.446264 0.29104,-1.128536 1.59879,-1.524 1.21179,-0.366183 2.56681,-0.385939 3.13796,-0.04974 0.6103,0.359834 0.16862,1.027289 -1.11972,1.502128"
         style="fill:#5999d8;fill-opacity:1;fill-rule:evenodd;stroke:none;stroke-width:0.35277778"
         id="path57"
         inkscape:connector-curvature="0" />
      <path
         d="m 147.86623,83.614213 c -0.84772,0.306564 -2.00413,0.325614 -2.50719,0.03916 -0.4766,-0.271639 -0.14217,-0.697089 0.68051,-0.95003 0.77858,-0.238831 1.76741,-0.251178 2.2673,-0.02963 0.52493,0.232834 0.35736,0.651934 -0.44062,0.940506"
         style="fill:#5ecbf5;fill-opacity:1;fill-rule:evenodd;stroke:none;stroke-width:0.35277778"
         id="path61"
         inkscape:connector-curvature="0" />
      <path
         d="m 150.85677,82.370173 c -0.51082,0.181328 -1.28658,0.191206 -1.69862,0.02081 -0.39688,-0.164395 -0.28187,-0.425803 0.22613,-0.584553 0.48789,-0.1524 1.18462,-0.159455 1.58467,-0.01693 0.41416,0.147461 0.37783,0.406753 -0.11218,0.580672"
         style="fill:#5ecbf5;fill-opacity:1;fill-rule:evenodd;stroke:none;stroke-width:0.35277778"
         id="path65"
         inkscape:connector-curvature="0" />
      <path
         d="m 153.17237,81.406563 c -0.29422,0.102658 -0.78564,0.107597 -1.08338,0.01094 -0.29104,-0.0949 -0.27587,-0.248003 0.0201,-0.341842 0.28857,-0.09172 0.74683,-0.0956 1.03575,-0.0095 0.29634,0.08855 0.31433,0.240595 0.0275,0.340431"
         style="fill:#87d8ef;fill-opacity:1;fill-rule:evenodd;stroke:none;stroke-width:0.35277778"
         id="path69"
         inkscape:connector-curvature="0" />
      <path
         d="m 146.59105,87.250683 c -1.50354,0.712964 -3.47557,0.766233 -4.18924,0.105833 -0.65263,-0.603955 0.0974,-1.515533 1.5046,-2.037291 1.29046,-0.478014 2.82046,-0.506589 3.55988,-0.07091 0.79798,0.470253 0.48366,1.358195 -0.87524,2.002367"
         style="fill:#4a74c3;fill-opacity:1;fill-rule:evenodd;stroke:none;stroke-width:0.35277778"
         id="path73"
         inkscape:connector-curvature="0" />
      <path
         d="m 150.69968,85.026693 c -0.86677,0.400756 -2.17876,0.427919 -2.83316,0.05503 -0.61524,-0.350661 -0.35489,-0.897114 0.49812,-1.2192 0.80152,-0.303036 1.90148,-0.319969 2.53048,-0.04127 0.66393,0.294217 0.61313,0.830792 -0.19544,1.205442"
         style="fill:#5999d8;fill-opacity:1;fill-rule:evenodd;stroke:none;stroke-width:0.35277778"
         id="path77"
         inkscape:connector-curvature="0" />
      <path
         d="m 153.63969,83.434893 c -0.50588,0.2286 -1.36913,0.242358 -1.8856,0.02893 -0.49565,-0.204611 -0.45191,-0.531284 0.0589,-0.728134 0.48859,-0.188736 1.25518,-0.198261 1.74625,-0.02328 0.51047,0.182033 0.56338,0.50412 0.0804,0.722489"
         style="fill:#5ecbf5;fill-opacity:1;fill-rule:evenodd;stroke:none;stroke-width:0.35277778"
         id="path81"
         inkscape:connector-curvature="0" />
      <path
         d="m 155.84801,82.239433 c -0.28504,0.125942 -0.82374,0.132292 -1.18674,0.01446 -0.35384,-0.115006 -0.39229,-0.30092 -0.10196,-0.415925 0.28258,-0.110772 0.78176,-0.116064 1.1303,-0.01199 0.35737,0.106539 0.43533,0.291395 0.1584,0.413456"
         style="fill:#87d8ef;fill-opacity:1;fill-rule:evenodd;stroke:none;stroke-width:0.35277778"
         id="path85"
         inkscape:connector-curvature="0" />
      <path
         d="m 150.40511,89.995183 c -1.57304,1.039283 -3.93806,1.123597 -4.97558,0.162983 -0.93168,-0.861836 -0.27516,-2.13995 1.23014,-2.857852 1.35996,-0.649111 3.11644,-0.690739 4.11198,-0.104423 1.08726,0.640645 1.02728,1.878189 -0.36654,2.799292"
         style="fill:#4a74c3;fill-opacity:1;fill-rule:evenodd;stroke:none;stroke-width:0.35277778"
         id="path89"
         inkscape:connector-curvature="0" />
      <path
         d="m 154.4357,86.889113 c -0.85407,0.545747 -2.36926,0.585611 -3.25579,0.08043 -0.82514,-0.4699 -0.70132,-1.196269 0.16616,-1.620308 0.80822,-0.395817 2.04788,-0.419806 2.86244,-0.05891 0.86642,0.384528 1.0153,1.095022 0.22719,1.598789"
         style="fill:#5999d8;fill-opacity:1;fill-rule:evenodd;stroke:none;stroke-width:0.35277778"
         id="path93"
         inkscape:connector-curvature="0" />
      <path
         d="m 157.16662,84.784303 c -0.47942,0.296686 -1.45168,0.316089 -2.11878,0.04057 -0.63606,-0.262819 -0.70697,-0.679802 -0.20779,-0.930627 0.4759,-0.239184 1.32715,-0.252589 1.94486,-0.03246 0.64523,0.229658 0.83679,0.640997 0.38171,0.922514"
         style="fill:#5ecbf5;fill-opacity:1;fill-rule:evenodd;stroke:none;stroke-width:0.35277778"
         id="path97"
         inkscape:connector-curvature="0" />
      <path
         d="m 159.13964,83.264003 c -0.26317,0.157692 -0.85972,0.167217 -1.31198,0.01976 -0.43956,-0.142875 -0.55739,-0.373945 -0.28222,-0.515762 0.2667,-0.137936 0.81527,-0.144991 1.24319,-0.01729 0.44026,0.131234 0.60572,0.360539 0.35101,0.513292"
         style="fill:#5ecbf5;fill-opacity:1;fill-rule:evenodd;stroke:none;stroke-width:0.35277778"
         id="path101"
         inkscape:connector-curvature="0" />
      <path
         d="m 156.09467,94.088503 c -1.52717,1.649942 -4.47992,1.793875 -6.12457,0.271992 -1.43652,-1.329267 -1.03999,-3.245556 0.53375,-4.294364 1.39382,-0.929217 3.4551,-0.992011 4.86586,-0.160514 1.5688,0.923572 2.038,2.764014 0.72496,4.182886"
         style="fill:#335db4;fill-opacity:1;fill-rule:evenodd;stroke:none;stroke-width:0.35277778"
         id="path105"
         inkscape:connector-curvature="0" />
      <path
         d="m 159.58869,89.457583 c -0.76517,0.784225 -2.55764,0.845256 -3.82517,0.123119 -1.16417,-0.663222 -1.29963,-1.673577 -0.45508,-2.256719 0.77787,-0.536222 2.1978,-0.571147 3.29353,-0.08537 1.17828,0.522464 1.68204,1.506714 0.98672,2.218972"
         style="fill:#4a74c3;fill-opacity:1;fill-rule:evenodd;stroke:none;stroke-width:0.35277778"
         id="path109"
         inkscape:connector-curvature="0" />
      <path
         d="m 161.78237,86.550623 c -0.41028,0.399344 -1.52365,0.427567 -2.41688,0.05856 -0.84631,-0.349955 -1.10702,-0.901347 -0.64664,-1.230842 0.43603,-0.312208 1.39347,-0.331258 2.19392,-0.04586 0.84032,0.299509 1.25589,0.842081 0.8696,1.218142"
         style="fill:#5999d8;fill-opacity:1;fill-rule:evenodd;stroke:none;stroke-width:0.35277778"
         id="path113"
         inkscape:connector-curvature="0" />
      <path
         d="m 163.28806,84.555213 c -0.21907,0.2032 -0.88724,0.2159 -1.46685,0.02787 -0.56092,-0.182738 -0.79869,-0.477308 -0.55633,-0.65793 0.2346,-0.17392 0.84314,-0.183797 1.38148,-0.02328 0.55527,0.165805 0.85301,0.457552 0.6417,0.653344"
         style="fill:#5ecbf5;fill-opacity:1;fill-rule:evenodd;stroke:none;stroke-width:0.35277778"
         id="path117"
         inkscape:connector-curvature="0" />
      <path
         d="m 158.96462,99.317443 -0.24836,1.619247 c 0,0 -0.54257,0.23001 -1.21426,0.23001 -0.29421,0 -0.37712,-0.14746 -0.37712,-0.3683 0,-0.0275 0.009,-0.055 0.009,-0.0734 l 0.19297,-1.232601 c 0.0279,-0.174978 0.20249,-0.174978 0.20249,-0.174978 z m 1.44462,-0.690033 v -0.03669 c 0,-0.0829 -0.009,-0.423334 -0.3683,-0.423334 h -2.401 c -0.96591,0 -1.53635,0.616303 -1.66511,1.518003 l -0.15628,1.067151 c -0.0183,0.14711 -0.037,0.29457 -0.037,0.41416 0,1.14089 0.94791,1.21426 1.11336,1.21426 0.92005,0 1.65594,-0.43215 1.65594,-0.43215 l -0.0554,0.34925 c -0.0367,0.24836 -0.11042,0.68086 -0.72673,0.68086 -0.81879,0 -1.766,-0.0921 -1.766,-0.0921 l -0.18415,1.15923 c 0,0 1.03928,0.17462 2.10679,0.17462 0.66216,0 1.65594,-0.28504 1.88559,-1.77517 z m -5.06906,0.551744 c 0,-1.020939 -0.66252,-1.103842 -1.13171,-1.103842 -0.72672,0 -1.49966,0.358775 -1.62842,0.432506 -0.23001,-0.349603 -0.62548,-0.432506 -0.94756,-0.432506 -0.54258,0 -1.40759,0.414162 -1.40759,0.414162 l -0.10124,-0.322087 h -1.0855 l -0.70838,4.452763 h 1.33421 l 0.49671,-3.11891 c 0,0 0.51505,-0.174625 0.82797,-0.174625 0.28504,0 0.36794,0.165806 0.36794,0.377472 0,0.04586 0,0.100895 -0.009,0.156281 l -0.4325,2.759782 h 1.34302 l 0.48789,-3.146426 c 0,0 0.40464,-0.147109 0.82797,-0.147109 0.28505,0 0.36795,0.165806 0.36795,0.367947 0,0.05539 -0.009,0.11042 -0.0187,0.165806 l -0.44132,2.759782 h 1.34302 l 0.4692,-2.93476 c 0.0279,-0.192969 0.0462,-0.358775 0.0462,-0.506236 m -8.57426,0.506236 c 0,0.02787 -0.009,0.05539 -0.009,0.07373 l -0.23919,1.52718 c -0.0183,0.10124 -0.10125,0.17462 -0.20249,0.17462 h -1.44427 l 0.31291,-1.959681 c 0,0 0.80045,-0.183797 1.19592,-0.183797 0.30338,0 0.38629,0.138289 0.38629,0.367947 m 1.35219,-0.386291 c 0,-0.680509 -0.40463,-1.223787 -1.11301,-1.223787 -0.73589,0 -1.76636,0.423687 -1.76636,0.423687 l -0.10124,-0.331612 h -1.0855 l -0.9017,5.694894 h 1.3342 l 0.20215,-1.24213 h 1.55504 c 0.93839,0 1.48096,-0.59796 1.62807,-1.51765 l 0.22084,-1.417111 c 0.0187,-0.128764 0.0275,-0.25788 0.0275,-0.386291"
         style="fill:#231f20;fill-opacity:1;fill-rule:evenodd;stroke:none;stroke-width:0.35277778"
         id="path121"
         inkscape:connector-curvature="0" />
      <path
         d="m 156.54926,105.26231 v -0.0222 c 0,-0.19085 -0.10125,-0.33161 -0.28892,-0.33161 h -0.55281 c -0.30303,0 -0.46566,0.19967 -0.50482,0.4632 l -0.0815,0.54152 c -0.003,0.0169 -0.003,0.0332 -0.003,0.0501 0,0.19085 0.10654,0.30339 0.30022,0.30339 h 0.55562 c 0.28893,0 0.44874,-0.19085 0.49072,-0.4632 z m -0.4124,0.0896 c 0,0.008 -0.003,0.0141 -0.003,0.0226 l -0.0702,0.46002 c -0.006,0.0307 -0.0307,0.0529 -0.0617,0.0529 h -0.37288 c -0.0621,0 -0.0928,-0.0303 -0.0928,-0.084 0,-0.008 0.003,-0.0141 0.003,-0.0222 l 0.0702,-0.46002 c 0.006,-0.0311 0.0282,-0.0533 0.0589,-0.0533 h 0.37571 c 0.0505,0 0.0928,0.0307 0.0928,0.084"
         style="fill:#1c63b7;fill-opacity:1;fill-rule:evenodd;stroke:none;stroke-width:0.35277778"
         id="path125"
         inkscape:connector-curvature="0" />
      <path
         d="m 154.29928,104.90851 h -0.43497 l -0.27764,0.35666 -0.15452,-0.35666 h -0.49071 l 0.33373,0.65934 -0.54963,0.69886 h 0.43462 l 0.29175,-0.39018 0.1711,0.39018 h 0.45473 l -0.32844,-0.69603 z"
         style="fill:#1c63b7;fill-opacity:1;fill-rule:evenodd;stroke:none;stroke-width:0.35277778"
         id="path129"
         inkscape:connector-curvature="0" />
      <path
         d="m 151.90046,105.22029 c 0,-0.10971 -0.0476,-0.31185 -0.38171,-0.31185 h -0.29174 c -0.32562,0 -0.47696,0.21907 -0.51612,0.46319 l -0.0674,0.4318 c -0.006,0.0448 -0.0109,0.0843 -0.0109,0.12065 0,0.34784 0.31679,0.37042 0.36724,0.37042 0.49671,0 0.77999,-0.13194 0.77999,-0.13194 l 0.0476,-0.30021 c 0,0 -0.33655,0.0787 -0.66182,0.0787 -0.0928,0 -0.11782,-0.0476 -0.11782,-0.1009 0,-0.0109 0.002,-0.0367 0.002,-0.0448 l 0.008,-0.0589 c 0,0 0.31715,-0.008 0.45756,-0.0339 0.17674,-0.0307 0.32808,-0.12911 0.35595,-0.2861 l 0.0226,-0.12629 c 0,0 0.006,-0.0279 0.006,-0.0699 m -0.34219,0.10089 c 0,0.006 -0.003,0.0226 -0.003,0.0226 -0.008,0.0727 -0.0363,0.10372 -0.11747,0.12312 -0.0674,0.0169 -0.34255,0.0254 -0.34255,0.0254 l 0.0282,-0.14852 c 0.0198,-0.10689 0.1263,-0.10971 0.1263,-0.10971 h 0.21872 c 0,0 0.09,0 0.09,0.0871"
         style="fill:#1c63b7;fill-opacity:1;fill-rule:evenodd;stroke:none;stroke-width:0.35277778"
         id="path133"
         inkscape:connector-curvature="0" />
      <path
         d="m 149.76259,104.52987 h -0.41804 l -0.27482,1.73673 h 0.41805 z"
         style="fill:#1c63b7;fill-opacity:1;fill-rule:evenodd;stroke:none;stroke-width:0.35277778"
         id="path137"
         inkscape:connector-curvature="0" />
      <path
         d="m 148.37095,104.50197 c 0,0 -0.13194,-0.0282 -0.37571,-0.0282 -0.0815,0 -0.42368,0.031 -0.50518,0.43462 l -0.006,0.0282 h -0.13723 l -0.048,0.32562 h 0.13758 l -0.15416,0.94544 c -0.0226,0.13476 -0.11783,0.17392 -0.27199,0.20461 l 0.0363,0.33373 c 0.40675,-0.0279 0.58314,-0.1651 0.6424,-0.53269 l 0.15417,-0.95109 h 0.32561 l 0.0505,-0.32562 h -0.32562 l 0.0113,-0.0561 c 0,0 0.0169,-0.10654 0.20779,-0.10654 h 0.2159 z"
         style="fill:#1c63b7;fill-opacity:1;fill-rule:evenodd;stroke:none;stroke-width:0.35277778"
         id="path141"
         inkscape:connector-curvature="0" />
      <path
         d="m 162.84553,97.718933 c 0,0.464608 -0.36477,0.829733 -0.83926,0.829733 -0.46955,0 -0.84455,-0.365125 -0.84455,-0.829733 0,-0.454731 0.375,-0.81915 0.84455,-0.81915 0.47449,0 0.83926,0.364419 0.83926,0.81915 m -1.47391,0 c 0,-0.359833 0.26988,-0.65405 0.63465,-0.65405 0.36477,0 0.62936,0.294217 0.62936,0.659342 0,0.35948 -0.26459,0.649111 -0.62442,0.649111 -0.36971,0 -0.63959,-0.289631 -0.63959,-0.654403 m 0.50448,0.430036 h -0.1898 v -0.819503 c 0.0751,-0.01482 0.17992,-0.02505 0.31468,-0.02505 0.15487,0 0.22507,0.02505 0.28504,0.05997 0.0448,0.03493 0.0801,0.09984 0.0801,0.179917 0,0.08996 -0.0702,0.159808 -0.17004,0.189794 v 0.0099 c 0.0797,0.02999 0.12488,0.08996 0.14993,0.200025 0.025,0.124884 0.0399,0.174978 0.06,0.204964 h -0.20496 c -0.0247,-0.02999 -0.0399,-0.105128 -0.0649,-0.200025 -0.0148,-0.09031 -0.0649,-0.129822 -0.17003,-0.129822 h -0.09 z m 0.005,-0.464961 h 0.0896 c 0.10513,0 0.19015,-0.03457 0.19015,-0.119592 0,-0.07514 -0.055,-0.125236 -0.17498,-0.125236 -0.0501,0 -0.085,0.0053 -0.10477,0.0099 z"
         style="fill:#231f20;fill-opacity:1;fill-rule:evenodd;stroke:none;stroke-width:0.35277778"
         id="path145"
         inkscape:connector-curvature="0" />
    </g>
    <rect
       style="fill:#3f51b5;fill-opacity:0.00416667;stroke:#ffffff;stroke-width:1.48137021;stroke-miterlimit:4;stroke-dasharray:none;stroke-opacity:1"
       id="rect895"
       width="170.04805"
       height="170.04805"
       x="22.418325"
       y="62.305046"
       inkscape:export-xdpi="96"
       inkscape:export-ydpi="96" />
  </g>
</svg>
